# xmcd
# 
# Track frame offsets:
#     150
#     18187
#     33522
#     51337
#     68102
#     83492
#     99722
#     117150
#     130660
#     149360
#     164257
#     185450
#     201634
#     217225
# 
# Disc length: 3065
# 
# Revision: 3
# Processed by: cddbd v1.5.2PL0 Copyright (c) Steve Scherf et al.
# Submitted via: fre:ac v1.0.17
# 
DISCID=cc0bf70e
DTITLE=Marita Taavitsainen - Yksi Ainoa Katse
DYEAR=0
DGENRE=Blues
TTITLE0=Yksi Ainoa Katse
TTITLE1=Sai Kuohuviini Kuplia
TTITLE2=Rakkautta Onko T‰‰
TTITLE3=Syd‰n P‰‰tt‰‰ Sen Saa
TTITLE4=Puuterilunta
TTITLE5=Kaukana Kaipaan Sua Niin
TTITLE6=Linnunlaulupuu
TTITLE7=Kurkkija
TTITLE8=Joutsen
TTITLE9=Amorin T‰ht‰imess‰
TTITLE10=Siivet
TTITLE11=Ohdakkeet
TTITLE12=Kotikyl‰n Kioskilla
TTITLE13=Samanlainen Onni
EXTD=ID3G: 0
EXTT0=
EXTT1=
EXTT2=
EXTT3=
EXTT4=
EXTT5=
EXTT6=
EXTT7=
EXTT8=
EXTT9=
EXTT10=
EXTT11=
EXTT12=
EXTT13=
PLAYORDER=
